<?xml version="1.0" encoding="UTF-8"?>
<svg id="Layer_1" data-name="Layer 1" xmlns="http://www.w3.org/2000/svg" viewBox="0 0 32 28">
  <defs>
    <style>
      .cls-1 {
        fill: #1a1a1a;
      }
    </style>
  </defs>
  <path class="cls-1" d="M28.8,0c-3.4,0-8.53,6.22-8.53,6.22l-4.26,5.18-2.13,2.6,1.06,1.3-4.26,5.18-4.05-4.92c-.75-.91-.75-2.2,0-3.11L14.63,2.69c.89-1.08.1-2.69-1.33-2.69H3.2C1.43,0,0,1.39,0,3.11v21.78c0,1.72,1.52,3.11,3.2,3.11,3.4,0,8.53-6.22,8.53-6.22l4.26-5.19,2.13-2.59-1.06-1.3,4.26-5.18,4.05,4.92c.75.91.75,2.2,0,3.11l-8.02,9.75c-.89,1.08-.1,2.69,1.33,2.69h10.1c1.76,0,3.2-1.4,3.2-3.11V3.11c0-1.72-1.52-3.11-3.2-3.11h0Z"/>
</svg>