<svg width="48" height="48" viewBox="0 0 48 48" fill="none" xmlns="http://www.w3.org/2000/svg">
<g clip-path="url(#clip0_183_5)">
<path d="M20.6755 2.66667C21.0489 2.66667 21.3955 2.78222 21.6978 3.05778C22.6667 3.91111 22.8178 5.47556 22.0267 6.49778C21.4755 7.2 20.9155 7.90222 20.3555 8.59556C18.5155 10.8978 16.6755 13.1911 14.8267 15.4844C13.2533 17.4489 11.7067 19.44 10.0978 21.3689C8.77332 22.96 8.7911 25.0133 10.0089 26.4978C10.9778 27.68 11.9289 28.8889 12.8889 30.08C13.8755 31.3156 14.8711 32.5422 15.8489 33.7778C15.9022 33.8489 15.9555 33.8844 16 33.8844C16.0444 33.8844 16.0889 33.8489 16.1511 33.7778C18.1689 31.2356 20.1955 28.7022 22.2222 26.1689C22.3289 26.0356 22.3378 25.9378 22.2222 25.8044C21.7955 25.2889 21.3778 24.7556 20.96 24.2311C20.8296 24.0652 20.8296 23.8963 20.96 23.7244C23.4578 20.6044 25.9555 17.4933 28.4444 14.3644C30.1244 12.2489 31.8222 10.1511 33.7333 8.24889C34.4533 7.52889 35.3155 7.17333 36.1867 7.17333C37.0311 7.17333 37.8667 7.51111 38.5867 8.19556C40.2755 9.81333 41.6889 11.6444 42.7911 13.7156C43.9911 15.9733 44.7822 18.3644 45.1289 20.9067C45.2089 21.4667 45.2533 22.0356 45.3244 22.6044V25.3867C45.2711 25.8489 45.2355 26.3111 45.1733 26.7644C44.7822 29.9378 43.7511 32.8889 42.0267 35.5733C38.6222 40.8711 33.8311 44.1156 27.6889 45.2889C27.5555 45.3156 27.4311 45.3244 27.3155 45.3244C26.8267 45.3244 26.4089 45.12 26.0711 44.7022C25.2355 43.68 25.2267 42.3911 26.0711 41.3422C27.3955 39.6889 28.72 38.0356 30.0444 36.3733C32.7022 33.0489 35.3689 29.7333 38.0089 26.4089C38.9867 25.1733 39.1555 23.8133 38.5155 22.3556C38.3289 21.92 38.0178 21.5644 37.7244 21.2C35.8667 18.88 34.0089 16.56 32.1511 14.24C32.0711 14.1422 32.0267 14.0889 31.9911 14.0889C31.9555 14.0889 31.9111 14.1422 31.8222 14.24C31.3511 14.8267 30.8889 15.4044 30.4178 15.9911C28.88 17.9111 27.3422 19.84 25.7955 21.7511C25.6533 21.9289 25.6533 22.0444 25.7955 22.2133C26.2222 22.7289 26.6311 23.2622 27.0578 23.7778C27.1822 23.9289 27.1822 24.0267 27.0578 24.1778C26.56 24.7911 26.0711 25.4133 25.5733 26.0267C22.4711 29.8489 19.4755 33.76 16.2755 37.5022C15.5289 38.3733 14.7467 39.2356 13.8844 40C13.3067 40.5067 12.5333 40.7733 11.7689 40.7733C11.1111 40.7733 10.4622 40.5867 9.93777 40.1956C9.11999 39.5911 8.44444 38.8267 7.79555 38.0533C6.0711 36.0178 4.76444 33.7422 3.87555 31.2178C3.31555 29.6178 2.93332 27.9644 2.76444 26.2756C2.72888 25.8933 2.68444 25.5111 2.64888 25.1289V22.8089C2.65777 22.7378 2.68444 22.6756 2.68444 22.6044C2.70221 22.1244 2.75555 21.6533 2.81777 21.1822C3.1111 18.8533 3.75999 16.6311 4.7911 14.5244C6.55999 10.88 9.13777 7.95556 12.5155 5.76C14.9067 4.20444 17.5111 3.19111 20.3111 2.69333C20.4355 2.67556 20.5511 2.65778 20.6667 2.65778M20.6755 0C20.4089 0 20.1244 0.0266667 19.8489 0.0711111C16.6844 0.64 13.7244 1.80444 11.0755 3.52889C7.30666 5.98222 4.3911 9.28889 2.40888 13.36C1.2711 15.6889 0.524436 18.2133 0.195547 20.8444C0.133325 21.3067 0.0799917 21.8044 0.0533251 22.3289C0.0533251 22.3289 0.0533251 22.3467 0.0533251 22.3556L0.00888062 22.5867V25.4044L0.133325 26.5511C0.319992 28.4178 0.737769 30.2844 1.37777 32.1067C2.36444 34.9156 3.83999 37.5022 5.77777 39.7867C6.51555 40.6578 7.32444 41.5733 8.37332 42.3467C9.33332 43.0578 10.5511 43.4489 11.7955 43.4489C13.2444 43.4489 14.6222 42.9422 15.68 42.0089C16.72 41.0933 17.6089 40.0978 18.3378 39.2533C20.4355 36.8 22.4711 34.2489 24.4267 31.7867C25.5022 30.4267 26.5867 29.0756 27.68 27.7244C27.92 27.4311 28.1511 27.1467 28.3822 26.8533C28.64 26.5333 28.8978 26.2044 29.1644 25.8844C30.0889 24.7467 30.0889 23.2267 29.1644 22.0978C29.1378 22.0622 29.1022 22.0267 29.0755 21.9911C29.92 20.9422 30.7555 19.8933 31.6 18.8444L32.0267 18.3111L35.68 22.8711L35.7867 23.0044C35.9111 23.1556 36.0711 23.36 36.1155 23.44C36.3555 23.9911 36.32 24.3022 35.9555 24.7556C34.0533 27.1556 32.1333 29.5378 30.2222 31.9289L27.9911 34.7111L26.6933 36.3378C25.8044 37.4489 24.9067 38.5689 24.0178 39.68C22.4 41.7067 22.4089 44.4089 24.0444 46.4C24.8889 47.4311 26.0622 47.9911 27.3511 47.9911C27.6355 47.9911 27.9378 47.9644 28.2311 47.9022C35.1022 46.5867 40.5067 42.9156 44.3111 37.0044C46.2133 34.0444 47.4133 30.7022 47.8578 27.0844C47.9022 26.7467 47.9378 26.4178 47.9644 26.08L48.0089 25.6622L48.0267 25.52V22.4444L48.0089 22.2933L47.9555 21.7778C47.9111 21.36 47.8667 20.9511 47.8133 20.5333C47.4222 17.7156 46.5422 14.9956 45.1822 12.4533C43.9644 10.1689 42.3733 8.08 40.4622 6.25778C39.2711 5.12 37.7689 4.49778 36.2222 4.49778C34.6311 4.49778 33.0933 5.15556 31.8933 6.34667C29.9289 8.29333 28.24 10.3733 26.3911 12.7022C24.6667 14.8622 22.9422 17.0222 21.2178 19.1822L18.9155 22.0622C17.9378 23.2889 17.9378 24.6844 18.9155 25.9022L18.9867 25.9911C18 27.2267 17.0133 28.4622 16.0267 29.6978C15.8755 29.5022 15.7155 29.3067 15.5644 29.12L15.0044 28.4178L14.1422 27.3422C13.4667 26.4978 12.7911 25.6533 12.1067 24.8178C11.6711 24.2844 11.6978 23.6533 12.1778 23.0844C13.3155 21.7244 14.4267 20.32 15.5022 18.9689C15.9822 18.3644 16.4622 17.76 16.9422 17.1556L19.36 14.1422L22.4711 10.2667L22.7555 9.91111C23.2267 9.32444 23.6978 8.73778 24.16 8.14222C25.8133 6.01778 25.5111 2.84444 23.4933 1.06667C22.7111 0.382222 21.7511 0.0177778 20.7022 0.0177778L20.6755 0Z" fill="#6E717A"/>
</g>
<defs>
<clipPath id="clip0_183_5">
<rect width="48" height="48" fill="white"/>
</clipPath>
</defs>
</svg>
